ply
format ascii 1.0
comment VCGLIB generated
element vertex 41
property float x
property float y
property float z
element face 84
property list uchar int vertex_indices
end_header
5 4 0 
0 0 0 
0 4 0 
5 0 0 
5 0 3 
5 1.67663 1.78 
5 2.85663 1.78 
5 2.85663 3 
5 4 3 
0 4 3 
0 0 3 
1.41638 0 0.897279 
3.48746 0 0.897279 
3.48746 0 2.17728 
1.41638 0 2.17728 
2.73746 1.53 0.897279 
1.41638 0.475436 0.897279 
1.41638 1.12808 0.897279 
1.41638 1.53 0.897279 
1.41638 1.53 2.17728 
1.41638 1.12808 1.48719 
1.41638 0.475436 1.48719 
0.146378 0.475436 0.897279 
0.146378 0.475436 1.48719 
0.146378 1.12808 1.48719 
0.146378 1.12808 0.897279 
3.48746 1.53 2.17728 
3.48746 1.53 0.897279 
2.73746 1.53 1.43728 
1.41638 1.53 1.43728 
2.73746 2.48 0.897279 
1.41638 2.48 0.897279 
1.41638 2.48 1.43728 
2.73746 2.48 1.43728 
3.57 1.67663 3 
5 1.67663 3 
3.57 2.85663 3 
4.55865 2.85663 1.26269 
4.55865 1.67663 1.26269 
3.12865 1.67663 2.48269 
3.12865 2.85663 2.48269 
3 0 1 2 
3 1 0 3 
3 0 4 3 
3 4 0 5 
3 5 0 6 
3 6 0 7 
3 7 0 8 
3 0 9 8 
3 9 0 2 
3 1 9 2 
3 9 1 10 
3 1 11 10 
3 11 1 12 
3 3 12 1 
3 12 3 4 
3 12 4 13 
3 13 4 14 
3 10 14 4 
3 10 11 14 
3 11 13 14 
3 13 11 12 
3 11 15 12 
3 16 15 11 
3 17 15 16 
3 15 17 18 
3 17 19 18 
3 20 19 17 
3 21 19 20 
3 21 14 19 
3 14 21 11 
3 16 11 21 
3 21 22 16 
3 22 21 23 
3 21 24 23 
3 24 21 20 
3 17 24 20 
3 24 17 25 
3 17 22 25 
3 22 17 16 
3 22 24 25 
3 24 22 23 
3 13 19 14 
3 19 13 26 
3 13 27 26 
3 27 13 12 
3 12 15 27 
3 28 27 15 
3 27 28 26 
3 26 28 19 
3 19 28 29 
3 15 29 28 
3 29 15 18 
3 18 30 15 
3 30 18 31 
3 18 32 31 
3 32 18 29 
3 18 19 29 
3 28 32 29 
3 32 28 33 
3 28 30 33 
3 30 28 15 
3 30 32 33 
3 32 30 31 
3 4 9 10 
3 9 4 34 
3 34 4 35 
3 35 4 5 
3 35 5 34 
3 5 36 34 
3 36 5 6 
3 5 37 6 
3 37 5 38 
3 5 39 38 
3 39 5 34 
3 36 39 34 
3 39 36 40 
3 6 40 36 
3 40 6 37 
3 37 39 40 
3 39 37 38 
3 36 6 7 
3 8 36 7 
3 9 36 8 
3 36 9 34 
