ply
format ascii 1.0
element vertex 955
property float x
property float y
property float z
element face 564
property list uchar int vertex_indices
property int layer_id
element layer 10
property list uchar uchar layer_name
end_header
0.35 -1 5.2
0.25 0 5.2
0.35 1 5.2
0.35 -6.59 6.2
0.35 6.59 6.2
0.35 6.59 13.85
0.35 -6.59 13.85
0.35 -6.9 6.2
0.35 -6.9 13.85
5.82 -8.07 6.2
5.82 -8.07 13.85
5.74 -8.36 13.85
5.74 -8.36 6.2
0.35 6.9 13.85
0.35 6.9 6.2
5.74 8.36 6.2
5.74 8.36 13.85
5.82 8.07 13.85
5.82 8.07 6.2
30.36 13.35 6.9
29.81 13.2 6.9
29.81 13.2 14.85
30.36 13.35 14.85
30.21 13.89 6.6
29.12 13.6 6.6
29.12 13.6 14.85
30.21 13.89 14.85
0.35 -3 5.2
0.35 3 5.2
0.35 3 6.2
0.35 -3 6.2
0.25 -4 5.2
0.25 -4 6.2
0.25 4 5.2
0.25 4 6.2
11 7.5 0.07
10.49 9.65 0.06
11.91 10.04 0.2
12.4 7.5 0.2
15 10.9 0.62
19.92 12.25 1.96
21.17 10.25 2.22
15.5 7.5 0.63
15 -10.9 0.62
15.5 -7.5 0.63
21.17 -10.25 2.22
19.92 -12.25 1.96
15.75 -5.9 0
29.2 -5.9 3.5
29.1 -7.5 3.47
15.75 -7.5 0
29.1 -7.5 4.2
28.49 -12.21 4.21
28.49 12.21 4.21
29.1 7.5 4.2
32.83 -8.19 4.3
40.5 -8.85 8
40.2 -10.5 7.93
32.62 -10.5 4.3
32.83 8.19 4.3
32.62 10.5 4.3
40.2 10.5 7.93
40.5 8.85 8
6.2 -7.75 8.75
6.2 7.75 8.75
7.05 8 8.75
7.05 -8 8.75
5.4 -7.55 8.35
5.4 7.55 8.35
5.9 7.65 8.75
5.9 -7.65 8.75
4.75 -7.35 8.25
4.75 7.35 8.25
3.35 -6.95 8.25
3.35 6.95 8.25
2.6 -6.75 7.85
2.6 6.75 7.85
3.05 6.9 8.15
3.05 -6.9 8.15
2 -6.6 7.75
2 6.6 7.75
1 -6.35 7.75
1 6.35 7.75
7.7 8.15 8.95
7.7 -8.15 8.95
11.7 -5.9 0
29.5 5.9 4.2
29.5 -5.9 4.2
11.7 2.4 0
11.7 5.9 0
15.75 5.9 0
15.75 7.5 0
29.1 7.5 3.47
29.2 5.9 3.5
33.05 2.75 5
41.9 0 8.79
41.7 -3 8.7
33.05 -2.75 5
11.8 -9.65 10.07
11.8 9.65 10.07
12.25 9.8 10.6
12.25 -9.8 10.6
31.4 -10.5 4.7
40.2 -10.5 8.3
39.35 -15.15 8.21
31.08 -12.91 4.7
41.9 -6 8.84
32.83 -8.19 5
41.7 -9 8.8
41.7 3 8.7
14.2 -10.3 11.55
14.2 10.3 11.55
15 10.55 12.65
15 -10.55 12.65
13.4 -10.1 10.95
13.4 10.1 10.95
11.25 -9.5 9.55
11.25 9.5 9.55
11.8 9.65 10.04
11.8 -9.65 10.04
10.5 -9.3 9.25
10.5 9.3 9.25
8.6 -9.15 9.25
8.6 9.15 9.25
9.35 9.35 9.25
9.35 -9.35 9.25
8.25 8.3 9.25
8.25 -8.3 9.25
11 -7.5 0.07
12.4 -7.5 0.2
11.9 -10.04 0.2
10.49 -9.65 0.06
31.4 10.5 4.7
31.08 12.91 4.7
39.35 15.15 8.21
40.2 10.5 8.3
32.83 8.19 5
41.9 6 8.84
41.7 9 8.8
0.35 -6.9 0
0.25 -6.8 0
10.16 -5.53 0
9.42 -9.36 0
24.8 13.6 13.85
28.83 14.68 13.85
29.12 13.6 13.85
24.8 12.4 13.85
24.8 -12.4 13.85
29.12 -13.6 13.85
28.83 -14.68 13.85
24.8 -13.6 13.85
37.2 6.55 12
41.9 6 12
41.7 3 12
37.2 1.25 12
36.9 6.25 12
37.2 -6.55 12
41.7 -3 12
41.9 -6 12
37.2 -1.25 12
36.9 -6.25 12
11.1 9.87 13.85
11.1 -9.87 13.85
11.99 10.06 0
11.99 12.49 0
14.11 13.07 0
14.11 10.65 0
11.99 10.06 2.2
11.99 12.49 2.2
14.11 13.07 2.2
14.11 10.65 2.2
11.24 9.85 3.2
15 10.9 3.2
14.45 10.57 3.2
11.28 9.71 3.2
14.76 9.95 3.2
14.56 10.24 3.2
12.7 5.9 0
11.91 10.04 0
15 10.9 0
19.92 12.25 3.2
15.07 9.78 3.2
11.24 -9.85 3.2
11.28 -9.71 3.2
14.45 -10.57 3.2
15 -10.9 3.2
14.56 -10.24 3.2
14.76 -9.95 3.2
15.07 -9.78 3.2
19.92 -12.25 3.2
12.7 -5.9 0
15 -10.9 0
11.9 -10.04 0
11.99 -10.06 2.2
14.11 -10.66 2.2
14.11 -13.07 2.2
11.99 -12.49 2.2
11.99 -10.06 0
14.11 -10.66 0
14.11 -13.07 0
11.99 -12.49 0
20.24 11.06 3.2
15.42 9.75 3.2
15.42 -9.75 3.2
20.24 -11.06 3.2
22.7 -10 13.85
18.5 10 13.85
18.5 -10 13.85
11.24 -9.85 3.9
11.28 -9.71 3.9
14.45 -10.57 3.9
15 -10.9 3.9
11.24 9.85 3.9
15 10.9 3.9
14.45 10.57 3.9
11.28 9.71 3.9
14.76 9.95 3.9
14.56 10.24 3.9
19.92 12.25 3.9
15.07 9.78 3.9
14.76 -9.95 3.9
15.07 -9.78 3.9
19.92 -12.25 3.9
14.56 -10.24 3.9
10.15 5.55 -0.6
11 7.5 -0.6
11.3 7.5 -0.6
11.7 5.9 -0.6
10.5 1.9 -0.6
9.42 9.36 -0.6
10.49 9.65 -0.6
0.35 6.9 0
9.42 9.36 0
10.15 5.55 0
10.5 1.9 0
11.48 -10.6 12.9
20.91 -13.17 12.9
20.77 -13.71 12.9
11.33 -11.15 12.9
26.76 11.74 14.85
24.8 12.4 14.85
30.52 12.76 14.85
26.75 -11.75 14.85
24.8 -12.4 14.85
26.76 -11.74 15.7
26.76 11.74 15.7
37.31 14.6 15.7
37.31 -14.6 15.7
22.7 10 13.85
11.1 9.87 12.9
10.94 10.46 12.9
21.46 13.31 12.9
21.62 12.72 12.9
11.33 11.15 12.9
20.77 13.71 12.9
20.91 13.17 12.9
11.48 10.6 12.9
0.25 6.8 0
0.35 6.9 0
10.5 -1.9 0
18.5 -10 14.7
18.5 10 14.7
22.7 10 14.7
22.7 -10 14.7
29.5 2.4 3.5
32.2 2.7 3.5
32.2 -2.7 3.5
29.5 -2.4 3.5
32.2 2.7 4.3
33.05 2.75 4.3
33.05 -2.75 4.3
32.2 -2.7 4.3
41.9 0 12
30.52 -12.76 4
30.92 -9.78 4
31.4 -10.5 4
31.08 -12.91 4
31.75 -9.85 4
31.7 -10.5 4
10.5 -1.9 -0.6
11.7 -5.9 -0.6
10.16 -5.53 -0.6
11 -7.5 -0.6
10.49 -9.65 -0.6
9.42 -9.36 -0.6
39.8 -12.6 12
40.5 -8.85 12
41.7 -9 12
41.95 -12.6 12
37.2 -11.85 12
39.35 -15.15 12
36.81 -14.47 12
36.9 -11.55 12
20.84 -10.25 3.9
20.35 -10.67 3.9
20.54 -10.4 3.9
21.62 -12.72 3.9
21.17 -10.25 3.9
28.49 -12.21 3.9
27.98 -14.45 3.9
28.49 -12.21 3.5
29.1 -7.5 3.5
30.92 -9.78 3.5
30.52 -12.76 3.5
27.98 -14.45 3.5
29.92 -14.98 3.5
31.9 -8.1 4.3
31.7 -10.5 4.3
31.9 -8.1 3.5
29.5 -5.9 3.5
10.79 -11 3.9
11.11 -9.82 3.9
21.31 -13.86 3.9
31.75 -9.85 3.5
28.83 -14.68 6.6
29.12 -13.6 6.6
30.21 -13.89 6.6
29.92 -14.98 6.6
29.67 -13.74 6.9
29.81 -13.2 6.9
30.36 -13.35 6.9
30.21 -13.89 6.9
20.77 -13.71 6.2
20.91 -13.17 6.2
21.46 -13.31 6.2
21.31 -13.86 6.2
10.79 -11 6.2
10.94 -10.46 6.2
11.48 -10.6 6.2
11.33 -11.15 6.2
10.49 -12.08 5.8
10.79 -11 5.8
11.88 -11.29 5.8
11.58 -12.38 5.8
11.88 -11.29 11.9
20.22 -13.56 11.9
19.93 -14.65 11.9
11.58 -12.38 11.9
19.93 -14.65 5.8
20.22 -13.56 5.8
21.31 -13.86 5.8
21.01 -14.94 5.8
26.76 -11.74 14.85
30.52 -12.76 14.85
30.21 -13.89 14.85
11.3 -7.5 -0.6
11.1 -9.87 12.9
21.62 -12.72 12.9
21.46 -13.31 12.9
10.94 -10.46 12.9
0.25 -2 5.2
0.25 -6.8 6.2
10.49 -12.08 3.5
10.79 -11 3.5
21.31 -13.86 3.5
21.01 -14.94 3.5
15.42 -9.75 3.9
20.24 -11.06 3.9
41.95 -12.6 8
39.8 -12.6 8
41.7 -9 8
11.3 -7.5 -0.3
11.7 -5.9 -0.3
12.7 -5.9 -0.3
12.4 -7.5 -0.3
15.5 -7.5 0
30.52 12.76 4
31.08 12.91 4
31.4 10.5 4
30.92 9.78 4
31.7 10.5 4
31.75 9.85 4
39.8 12.6 12
41.95 12.6 12
41.7 9 12
40.5 8.85 12
37.2 11.85 12
36.81 14.47 12
39.35 15.15 12
36.9 11.55 12
20.84 10.25 3.9
20.54 10.4 3.9
20.35 10.67 3.9
21.62 12.72 3.9
27.98 14.45 3.9
28.49 12.21 3.9
21.17 10.25 3.9
28.49 12.21 3.5
30.52 12.76 3.5
30.92 9.78 3.5
29.1 7.5 3.5
27.98 14.45 3.5
29.92 14.98 3.5
31.9 8.1 4.3
31.7 10.5 4.3
29.5 5.9 3.5
31.9 8.1 3.5
10.79 11 3.9
21.31 13.86 3.9
11.11 9.82 3.9
31.75 9.85 3.5
28.83 14.68 6.6
29.92 14.98 6.6
29.67 13.74 6.9
30.21 13.89 6.9
20.77 13.71 6.2
21.31 13.86 6.2
21.46 13.31 6.2
20.91 13.17 6.2
10.79 11 6.2
11.33 11.15 6.2
11.48 10.6 6.2
10.94 10.46 6.2
10.49 12.08 5.8
11.58 12.38 5.8
11.88 11.29 5.8
10.79 11 5.8
11.88 11.29 11.9
11.58 12.38 11.9
19.93 14.65 11.9
20.22 13.56 11.9
19.93 14.65 5.8
21.01 14.94 5.8
21.31 13.86 5.8
20.22 13.56 5.8
0.25 2 5.2
0.25 6.8 6.2
10.49 12.08 3.5
21.01 14.94 3.5
21.31 13.86 3.5
10.79 11 3.5
20.24 11.06 3.9
15.42 9.75 3.9
41.95 12.6 8
41.7 9 8
39.8 12.6 8
11.3 7.5 -0.3
12.4 7.5 -0.3
12.7 5.9 -0.3
11.7 5.9 -0.3
15.5 7.5 0
29.92 14.98 14.85
29.92 -14.98 14.85
36.81 14.47 15.7
37.2 11.85 15.7
36.9 11.55 15.7
37.2 6.55 15.7
36.9 6.25 15.7
37.2 1.25 15.7
37.2 -1.25 15.7
36.9 -6.25 15.7
37.2 -6.55 15.7
36.9 -11.55 15.7
37.2 -11.85 15.7
36.81 -14.47 15.7
39.35 15.15 15.7
31.08 12.91 15.7
31.08 12.91 4.7
31.08 12.91 4
30.52 12.76 15.7
31.08 -12.91 4
31.08 -12.91 15.7
30.52 -12.76 15.7
39.35 -15.15 15.7
31.08 -12.91 4.7
24.18 12.92 6.6
24.17 13.07 6.6
24.17 13.07 13.85
24.18 12.92 13.85
23.27 12.83 6.6
23.27 12.83 13.85
26.87 -13.8 6.6
27.79 -13.9 6.6
27.79 -13.9 13.85
26.87 -13.8 13.85
28.67 -14.29 6.6
28.92 -14.36 6.6
28.92 -14.36 13.85
28.67 -14.29 13.85
28.69 -14.14 6.6
28.69 -14.14 13.85
27.77 -14.05 6.6
27.77 -14.05 13.85
25.09 13.17 6.6
25.09 13.17 13.85
26.89 -13.66 6.6
26.89 -13.66 13.85
25.97 -13.56 6.6
25.97 -13.56 13.85
25.99 -13.41 6.6
25.99 -13.41 13.85
25.07 -13.32 6.6
25.07 -13.32 13.85
25.09 -13.17 6.6
25.09 -13.17 13.85
24.17 -13.07 6.6
24.17 -13.07 13.85
24.18 -12.92 6.6
24.18 -12.92 13.85
23.28 -12.68 6.6
23.27 -12.83 6.6
23.27 -12.83 13.85
23.28 -12.68 13.85
22.16 -12.87 6.6
22.24 -12.58 6.6
22.24 -12.58 13.85
22.16 -12.87 13.85
27.36 11.91 3.9
28.49 -12.21 4.35
21.17 -10.25 4.35
29.2 5.9 4.13
15.75 5.9 0.96
14.11 10.65 3.2
11.99 10.06 3.2
12.4 -7.5 0
6.42 -8.54 0
11.99 -10.06 3.2
6.42 -8.54 3.2
12.4 7.5 0
14.11 -10.66 3.2
14.81 -10.3 4.4
14.81 -10.3 3.9
14.66 -10.83 3.9
14.66 -10.83 4.4
20.21 -11.77 4.4
20.06 -12.3 4.4
20.21 -11.77 3.9
20.06 -12.3 3.9
14.66 10.83 4.4
14.66 10.83 3.9
14.81 10.3 3.9
14.81 10.3 4.4
20.06 12.3 4.4
20.21 11.77 4.4
20.06 12.3 3.9
20.21 11.77 3.9
10.49 9.65 0
6.42 8.54 0
6.42 8.54 3.2
20.35 10.67 2.02
20.35 10.67 3.2
10.49 -9.65 0
20.35 -10.67 2.02
20.35 -10.67 3.2
20.24 -11.06 4.35
20.35 -10.67 4.35
20.54 -10.4 2.06
20.54 -10.4 4.35
20.84 -10.25 2.13
20.84 -10.25 4.35
20.24 11.06 4.35
20.35 10.67 4.35
20.54 10.4 2.06
20.54 10.4 4.35
20.84 10.25 2.13
20.84 10.25 4.35
21.17 10.25 4.35
28.49 12.21 4.35
15.75 7.5 0.7
15.75 -7.5 0.7
32.62 -10.5 5.2
40.2 -10.5 8
39.8 -12.6 8.25
32.62 10.5 5.2
40.5 -8.85 8.29
40.2 10.5 8
40.5 8.85 8.29
39.8 12.6 8.25
29.2 -5.9 4.13
15.75 -5.9 0.96
31.7 -10.5 3.5
11.66 -12.09 5.8
12.76 -12.19 5.8
12.76 -12.19 11.9
11.66 -12.09 11.9
10.79 -11 3.1
21.31 -13.86 3.1
27.37 -11.91 3.9
11.28 -9.71 4.2
14.45 -10.57 4.2
15.07 -9.78 4.2
14.76 -9.95 4.2
15.42 -9.75 4.2
20.24 -11.06 4.2
2.27 -7.42 6.2
2.27 -7.42 0
2.37 -7.03 0
2.37 -7.03 6.2
0.45 -6.51 6.2
0.45 -6.51 0
0.35 -3 0
0.25 -2 0
0.35 -1 0
0.25 -4 0
0.25 -6.8 5.2
6.47 -8.35 4.2
6.47 -8.35 3.2
6.42 -8.54 4.2
11.29 -9.66 4.2
11.24 -9.85 4.2
11.29 -9.66 3.2
8.45 -8.89 5.2
8.45 -8.89 13.85
8.4 -9.08 13.85
8.4 -9.08 5.2
5.79 -8.17 5.2
5.79 -8.17 13.85
4.42 -7.69 5.2
4.42 -7.69 4.2
4.34 -7.98 4.2
4.34 -7.98 5.2
8.47 -8.79 5.2
8.47 -8.79 4.2
8.4 -9.08 4.2
2.37 -7.03 5.2
2.27 -7.42 5.2
5.85 -7.97 6.2
5.85 -7.97 5.2
5.74 -8.36 5.2
31.9 -8.1 5
32.2 -2.7 5
30.92 -9.78 4.7
30.52 -12.76 4.7
0.25 0 0
14.56 -10.24 4.2
36.1 -13.91 9.3
36.11 -13.76 9.3
36.11 -13.76 15.7
36.1 -13.91 15.7
35.33 -13.7 8.9
35.35 -13.55 8.9
35.35 -13.55 15.7
35.33 -13.7 15.7
34.57 -13.49 8.5
34.58 -13.34 8.5
34.58 -13.34 15.7
34.57 -13.49 15.7
33.8 -13.29 8.1
33.82 -13.14 8.1
33.82 -13.14 15.7
33.8 -13.29 15.7
33.04 -13.08 7.7
33.05 -12.93 7.7
33.05 -12.93 15.7
33.04 -13.08 15.7
32.27 -12.87 7.3
32.29 -12.72 7.3
32.29 -12.72 15.7
32.27 -12.87 15.7
31.14 -12.62 7.3
31.14 -12.62 15.7
33.8 -13.29 8.5
33.04 -13.08 8.1
32.27 -12.87 7.7
31.06 -12.91 7.3
31.06 -12.91 15.7
36.1 -13.91 9.7
36.88 -13.97 9.7
36.88 -13.97 15.7
35.33 -13.7 9.3
34.57 -13.49 8.9
25.07 13.32 6.6
25.07 13.32 13.85
25.99 13.41 6.6
25.99 13.41 13.85
25.97 13.56 6.6
25.97 13.56 13.85
28.69 14.14 6.6
28.67 14.29 6.6
28.67 14.29 13.85
28.69 14.14 13.85
26.89 13.66 6.6
26.87 13.8 6.6
26.87 13.8 13.85
26.89 13.66 13.85
29.81 -13.2 14.85
30.36 -13.35 14.85
28.92 14.36 6.6
28.92 14.36 13.85
27.77 14.05 6.6
27.77 14.05 13.85
20.22 -13.56 12.9
11.88 -11.29 12.9
19.79 -14.26 5.8
20.02 -14.32 5.8
20.02 -14.32 11.9
19.79 -14.26 11.9
18.91 -14.02 5.8
19.8 -14.11 5.8
19.8 -14.11 11.9
18.91 -14.02 11.9
18.03 -13.78 5.8
18.92 -13.87 5.8
18.92 -13.87 11.9
18.03 -13.78 11.9
17.15 -13.54 5.8
18.04 -13.63 5.8
18.04 -13.63 11.9
17.15 -13.54 11.9
16.27 -13.3 5.8
17.16 -13.39 5.8
17.16 -13.39 11.9
16.27 -13.3 11.9
15.38 -13.06 5.8
16.28 -13.15 5.8
16.28 -13.15 11.9
15.38 -13.06 11.9
14.5 -12.82 5.8
15.4 -12.91 5.8
15.4 -12.91 11.9
14.5 -12.82 11.9
13.62 -12.58 5.8
14.52 -12.67 5.8
14.52 -12.67 11.9
13.62 -12.58 11.9
12.74 -12.34 5.8
13.64 -12.43 5.8
13.64 -12.43 11.9
12.74 -12.34 11.9
21.31 -13.86 12.9
19.93 -14.65 12.9
11.3 -7.5 0.1
12.55 -5.9 0.2
12.7 -5.9 0.2
12.7 -5.9 0.24
32.62 -10.5 5.2
31.7 -10.5 4.82
21.06 -10.86 4.6
21.06 -10.86 3.9
20.91 -11.39 3.9
20.91 -11.39 4.6
28.29 -12.82 4.6
28.15 -13.35 4.6
28.29 -12.82 3.9
28.15 -13.35 3.9
21.79 -12.07 4.9
21.79 -12.07 3.9
21.65 -12.6 3.9
21.65 -12.6 4.9
28.06 -13.78 4.9
27.92 -14.31 4.9
28.06 -13.78 3.9
27.92 -14.31 3.9
20.15 -12.79 4.8
10.98 -10.3 4.8
10.84 -10.83 4.8
20 -13.32 4.8
20.15 -12.79 3.9
20 -13.32 3.9
10.98 -10.3 3.9
10.84 -10.83 3.9
21.62 -12.72 3.5
21.62 -12.72 13.85
21.01 -14.94 13.85
10.49 -12.08 13.85
11.11 -9.82 3.5
11.11 -9.82 13.85
11.11 -9.82 4.2
27.79 13.9 6.6
27.79 13.9 13.85
10.79 -11 12.9
22.24 12.58 6.6
23.28 12.68 6.6
23.28 12.68 13.85
22.24 12.58 13.85
29.12 -13.6 14.85
29.67 13.74 14.85
29.67 -13.74 14.85
6.47 -8.35 0
4.4 -7.79 0
4.4 -7.79 4.2
11.58 -12.38 12.9
4.34 -7.98 0
4.42 -7.69 0
2.35 -7.13 0
2.35 -7.13 5.2
31.7 10.5 3.5
11.66 12.09 5.8
12.76 12.19 5.8
12.76 12.19 11.9
11.66 12.09 11.9
10.79 11 3.1
21.31 13.86 3.1
11.28 9.71 4.2
14.45 10.57 4.2
15.07 9.78 4.2
14.76 9.95 4.2
15.42 9.75 4.2
20.24 11.06 4.2
2.37 7.03 6.2
2.37 7.03 0
2.27 7.42 0
2.27 7.42 6.2
0.45 6.51 6.2
0.45 6.51 0
0.35 3 0
0.25 2 0
0.35 1 0
0.25 4 0
0.25 6.8 5.2
6.42 8.54 4.2
6.47 8.35 3.2
6.47 8.35 4.2
11.24 9.85 4.2
11.29 9.66 4.2
11.29 9.66 3.2
8.4 9.08 5.2
8.4 9.08 13.85
8.45 8.89 13.85
8.45 8.89 5.2
5.79 8.17 5.2
5.79 8.17 13.85
4.34 7.98 5.2
4.34 7.98 4.2
4.42 7.69 4.2
4.42 7.69 5.2
8.47 8.79 5.2
8.4 9.08 4.2
8.47 8.79 4.2
2.27 7.42 5.2
2.37 7.03 5.2
5.85 7.97 6.2
5.74 8.36 5.2
5.85 7.97 5.2
31.9 8.1 5
32.2 2.7 5
30.92 9.78 4.7
30.52 12.76 4.7
14.56 10.24 4.2
36.1 13.91 9.3
36.11 13.76 9.3
36.11 13.76 15.7
36.1 13.91 15.7
35.33 13.7 8.9
35.35 13.55 8.9
35.35 13.55 15.7
35.33 13.7 15.7
34.57 13.49 8.5
34.58 13.34 8.5
34.58 13.34 15.7
34.57 13.49 15.7
33.8 13.29 8.1
33.82 13.14 8.1
33.82 13.14 15.7
33.8 13.29 15.7
33.04 13.08 7.7
33.05 12.93 7.7
33.05 12.93 15.7
33.04 13.08 15.7
32.27 12.87 7.3
32.29 12.72 7.3
32.29 12.72 15.7
32.27 12.87 15.7
31.14 12.62 7.3
31.14 12.62 15.7
33.8 13.29 8.5
33.04 13.08 8.1
32.27 12.87 7.7
31.06 12.91 7.3
31.06 12.91 15.7
36.1 13.91 9.7
36.88 13.97 9.7
36.88 13.97 15.7
35.33 13.7 9.3
34.57 13.49 8.9
21.62 12.72 3.5
29.92 14.98 13.85
21.62 12.72 13.85
29.92 -14.98 13.85
22.16 12.87 6.6
22.16 12.87 13.85
20.22 13.56 12.9
11.88 11.29 12.9
19.79 14.26 5.8
20.02 14.32 5.8
20.02 14.32 11.9
19.79 14.26 11.9
18.91 14.02 5.8
19.8 14.11 5.8
19.8 14.11 11.9
18.91 14.02 11.9
18.03 13.78 5.8
18.92 13.87 5.8
18.92 13.87 11.9
18.03 13.78 11.9
17.15 13.54 5.8
18.04 13.63 5.8
18.04 13.63 11.9
17.15 13.54 11.9
16.27 13.3 5.8
17.16 13.39 5.8
17.16 13.39 11.9
16.27 13.3 11.9
15.38 13.06 5.8
16.28 13.15 5.8
16.28 13.15 11.9
15.38 13.06 11.9
14.5 12.82 5.8
15.4 12.91 5.8
15.4 12.91 11.9
14.5 12.82 11.9
13.62 12.58 5.8
14.52 12.67 5.8
14.52 12.67 11.9
13.62 12.58 11.9
12.74 12.34 5.8
13.64 12.43 5.8
13.64 12.43 11.9
12.74 12.34 11.9
21.31 13.86 12.9
19.93 14.65 12.9
11.3 7.5 0.1
12.55 5.9 0.2
12.7 5.9 0.2
12.7 5.9 0.24
32.62 10.5 5.2
31.7 10.5 4.82
20.91 11.39 4.6
20.91 11.39 3.9
21.06 10.86 3.9
21.06 10.86 4.6
28.15 13.35 4.6
28.29 12.82 4.6
28.15 13.35 3.9
28.29 12.82 3.9
21.65 12.6 4.9
21.65 12.6 3.9
21.79 12.07 3.9
21.79 12.07 4.9
27.92 14.31 4.9
28.06 13.78 4.9
27.92 14.31 3.9
28.06 13.78 3.9
20 13.32 4.8
10.84 10.83 4.8
10.98 10.3 4.8
20.15 12.79 4.8
20 13.32 3.9
20.15 12.79 3.9
10.84 10.83 3.9
10.98 10.3 3.9
21.01 14.94 13.85
10.49 12.08 13.85
11.11 9.82 3.5
11.11 9.82 13.85
11.11 9.82 4.2
10.79 11 12.9
6.47 8.35 0
4.4 7.79 0
4.4 7.79 4.2
4.34 7.98 0
11.58 12.38 12.9
4.42 7.69 0
2.35 7.13 0
2.35 7.13 5.2
4 139 140 141 142 9
4 140 234 259 141 9
4 140 257 258 234 9
4 231 232 233 234 9
4 3 4 5 6 5
4 6 3 7 8 5
4 13 14 4 5 5
3 0 1 2 5
3 27 350 0 5
3 28 2 425 5
4 799 33 34 426 5
4 29 34 426 14 5
4 33 28 29 34 5
4 27 28 29 30 5
4 31 27 30 32 5
4 30 7 351 32 5
4 594 31 32 351 5
4 140 593 31 594 5
4 593 590 27 31 5
4 590 591 350 27 5
4 591 592 0 350 5
4 592 623 1 0 5
4 797 623 1 2 5
4 796 797 2 425 5
4 795 796 425 28 5
4 798 795 28 33 5
4 257 798 33 799 5
4 163 164 165 166 1
4 177 178 179 90 1
3 440 91 90 1
4 436 437 438 439 1
4 224 229 230 225 1
4 224 225 226 227 1
3 228 224 227 1
4 279 228 227 280 1
3 279 280 281 1
4 281 280 345 282 1
4 281 282 283 284 1
4 361 362 363 364 1
4 190 47 191 192 1
4 197 198 199 200 1
4 208 209 210 211 1
3 365 47 50 1
4 210 223 220 211 1
4 211 220 221 222 1
4 221 356 357 222 1
4 293 222 294 295 1
4 352 353 354 355 1
4 310 311 296 312 1
4 296 222 293 297 1
4 296 297 298 299 1
4 380 381 382 218 1
4 212 213 214 215 1
4 214 213 216 217 1
4 213 218 219 216 1
4 397 398 383 399 1
4 427 428 429 430 1
4 219 218 431 432 1
4 383 386 380 218 1
4 383 384 385 386 1
4 391 392 388 387 1
4 387 388 389 390 1
4 366 367 368 369 1
4 369 368 370 371 1
4 393 394 60 59 1
4 389 400 371 369 1
4 390 389 400 396 1
4 93 390 396 395 1
4 776 396 393 394 1
4 264 395 396 265 1
4 268 393 59 269 1
4 268 269 270 271 1
4 264 265 266 267 1
4 267 266 308 309 1
4 48 309 308 301 1
4 301 308 313 302 1
4 274 277 278 275 1
4 306 55 58 307 1
4 300 301 302 303 1
4 273 274 275 276 1
4 302 313 277 274 1
4 570 308 306 307 1
4 304 300 303 305 1
4 271 270 55 306 1
4 55 56 57 58 2
4 358 359 56 360 1
3 56 561 57 1
4 59 60 61 62 2
4 433 434 62 435 1
3 62 565 61 1
3 49 301 48 2
4 47 48 49 50 2
4 90 91 92 93 2
3 93 390 92 2
4 13 161 162 8 0
4 171 172 173 174 0
4 173 172 175 176 0
4 175 172 180 181 0
4 180 201 202 181 0
4 249 252 867 161 0
4 249 250 251 252 0
4 253 254 255 256 0
4 182 183 184 185 0
4 184 186 187 185 0
4 187 188 189 185 0
4 189 188 203 204 0
4 235 236 237 238 0
4 346 347 348 349 0
4 346 347 752 162 0
3 162 205 150 0
4 206 207 162 161 0
3 161 143 248 0
4 206 248 262 261 0
4 207 206 261 260 0
4 248 205 263 262 0
4 207 205 263 260 0
4 260 261 262 263 0
4 143 150 205 248 0
4 146 147 243 240 0
4 240 239 242 243 0
4 239 342 244 245 0
4 239 240 26 241 0
4 241 239 245 459 0
4 143 144 145 146 0
4 147 148 149 150 0
4 342 343 344 243 0
4 343 342 244 462 0
4 244 245 246 247 0
4 376 377 378 372 0
3 376 372 375 0
4 372 373 374 375 0
4 151 379 376 375 0
4 151 375 374 152 0
3 151 152 153 0
4 154 155 151 153 0
3 153 272 154 0
4 157 159 154 272 0
4 159 157 156 160 0
3 156 157 158 0
4 156 158 287 286 0
4 156 286 289 292 0
3 289 286 285 0
4 285 286 287 288 0
4 289 285 290 291 0
4 134 455 456 457 7
4 366 458 456 459 7
4 392 388 241 441 7
4 865 392 866 867 7
4 428 865 867 941 7
4 427 428 941 942 7
4 943 427 942 944 7
4 817 945 944 807 7
4 104 463 461 464 7
4 273 460 461 462 7
4 305 303 343 442 7
4 751 305 868 752 7
4 355 751 752 753 7
4 352 355 753 754 7
4 755 352 754 756 7
4 613 757 756 603 7
4 376 377 443 444 3
4 379 376 444 445 3
4 151 379 445 446 3
4 155 151 446 447 3
4 154 155 447 448 3
4 154 159 449 448 3
4 159 160 450 449 3
4 160 156 451 450 3
4 156 292 452 451 3
4 292 289 453 452 3
4 289 291 454 453 3
4 359 358 288 285 3
4 562 285 290 104 3
4 358 360 287 288 3
4 106 158 287 108 3
4 96 157 158 106 3
4 95 272 157 96 3
4 95 272 153 109 3
4 109 153 152 137 3
4 137 152 374 138 3
4 433 434 374 373 3
4 435 433 373 372 3
4 567 372 378 134 3
4 35 36 37 38 4
4 518 178 37 38 4
4 226 225 35 911 4
4 225 230 36 35 4
4 436 437 38 911 4
4 39 40 41 42 4
4 42 41 53 54 4
4 387 390 54 53 4
3 91 92 54 4
3 91 54 558 4
4 440 91 558 42 4
4 179 440 42 39 4
4 439 438 914 89 4
3 912 913 914 4
4 177 90 511 914 4
3 90 510 511 4
3 90 93 510 4
4 93 395 86 510 4
4 395 309 87 86 4
4 48 309 87 568 4
3 47 48 568 4
3 47 568 569 4
4 190 47 569 724 4
3 722 723 724 4
4 362 363 724 85 4
4 280 227 89 85 4
4 85 88 89 86 4
3 85 86 87 4
4 128 129 130 131 4
4 514 192 130 129 4
4 361 364 129 721 4
4 345 282 128 721 4
4 282 283 131 128 4
4 43 44 45 46 4
4 44 51 52 45 4
4 300 301 51 52 4
3 50 49 51 4
3 50 51 559 4
4 365 50 559 44 4
4 191 365 44 43 4
4 102 103 104 105 4
4 561 359 562 103 4
3 58 57 103 4
3 58 103 560 4
4 307 58 725 726 4
4 275 278 726 102 4
4 275 276 105 102 4
3 107 106 108 4
4 97 96 106 107 4
4 94 95 96 97 4
3 94 109 95 4
4 94 136 137 109 4
3 136 138 137 4
4 56 360 108 564 4
3 55 56 564 4
3 55 564 107 4
4 55 270 97 107 4
4 270 269 94 97 4
4 59 269 94 136 4
3 59 566 136 4
3 59 62 566 4
4 62 434 138 566 4
4 132 133 134 135 4
4 565 435 567 135 4
3 60 61 135 4
4 394 60 915 916 4
3 60 135 563 4
4 368 370 916 132 4
4 368 367 133 132 4
4 917 918 919 920 4
4 921 917 920 922 4
4 923 921 922 924 4
4 918 917 921 923 4
4 919 924 922 920 4
4 925 926 927 928 4
4 929 925 928 930 4
4 931 929 930 932 4
4 926 925 929 931 4
4 927 932 930 928 4
4 528 529 530 531 4
4 532 528 531 533 4
4 534 532 533 535 4
4 529 528 532 534 4
4 530 535 533 531 4
4 933 934 935 936 4
4 937 933 936 938 4
4 939 934 933 937 4
4 940 938 936 935 4
4 743 744 745 746 4
4 747 743 746 748 4
4 749 744 743 747 4
4 750 748 746 745 4
4 520 521 522 523 4
4 524 520 523 525 4
4 526 524 525 527 4
4 521 520 524 526 4
4 522 527 525 523 4
4 727 728 729 730 4
4 731 727 730 732 4
4 733 731 732 734 4
4 728 727 731 733 4
4 729 734 732 730 4
4 735 736 737 738 4
4 739 735 738 740 4
4 741 739 740 742 4
4 736 735 739 741 4
4 737 742 740 738 4
4 3 6 10 9 5
4 9 10 11 12 5
4 605 606 602 601 5
4 601 602 603 604 5
4 612 611 604 613 5
4 611 607 610 604 5
4 607 608 609 610 5
4 608 612 613 609 5
4 608 607 611 612 5
4 617 616 12 618 5
4 616 587 584 12 5
4 587 614 615 584 5
4 614 617 618 615 5
4 614 587 616 617 5
4 7 584 587 588 5
4 140 139 7 351 5
4 139 7 588 589 5
4 586 589 588 587 5
4 584 585 586 587 5
4 773 774 775 607 5
4 610 772 773 607 5
4 768 769 770 595 5
4 597 515 768 595 5
4 595 596 517 597 5
4 598 595 597 599 5
4 600 598 599 182 5
4 596 600 182 517 5
4 596 595 598 600 5
4 515 197 516 517 5
4 197 200 196 193 5
4 200 199 195 196 5
4 198 199 195 194 5
4 198 191 185 519 5
4 193 194 195 196 5
4 193 194 519 516 5
4 184 183 578 579 5
4 186 184 579 624 5
4 186 187 581 624 5
4 187 188 580 581 5
4 188 203 582 580 5
4 204 203 582 583 5
4 46 189 185 43 5
4 575 576 312 310 5
4 542 543 189 46 5
4 543 204 544 545 5
4 546 547 545 542 5
4 548 549 547 546 5
4 45 509 549 548 5
4 52 508 509 45 5
3 298 577 52 5
4 304 300 298 299 5
4 303 302 621 622 5
4 266 308 619 620 5
4 265 266 620 825 5
4 265 396 824 825 5
4 388 389 826 827 5
4 391 387 385 384 5
3 385 507 53 5
4 53 557 556 41 5
4 41 556 555 554 5
4 554 555 553 552 5
4 552 553 551 539 5
4 540 201 550 551 5
4 539 540 180 40 5
4 201 202 787 788 5
4 181 202 787 785 5
4 175 181 785 786 5
4 176 175 786 828 5
4 176 173 784 828 5
4 40 180 172 39 5
4 167 170 512 513 5
4 173 174 783 784 5
4 781 782 398 397 5
4 166 179 172 512 5
4 166 165 169 170 5
4 164 165 169 168 5
4 163 164 168 167 5
4 167 168 169 170 5
4 537 163 513 538 5
4 802 947 537 800 5
4 947 802 949 948 5
4 815 952 950 812 5
4 952 815 954 953 5
4 789 790 791 792 5
4 790 789 793 794 5
4 794 793 14 231 5
4 257 231 14 426 5
4 793 789 792 14 5
4 792 819 820 789 5
4 819 822 823 820 5
4 822 15 821 823 5
4 15 792 789 821 5
4 820 823 821 789 5
4 812 813 814 815 5
4 813 817 818 814 5
4 817 806 816 818 5
4 806 812 815 816 5
4 814 818 816 815 5
4 800 538 801 802 5
4 538 171 805 801 5
4 171 803 804 805 5
4 803 800 802 804 5
4 801 805 804 802 5
4 806 807 808 809 5
4 810 809 808 811 5
4 15 16 17 18 5
4 4 18 17 5 5
4 437 438 177 518 5
4 226 227 439 436 5
4 229 230 536 232 5
4 229 224 233 232 5
4 224 228 234 233 5
4 279 228 234 259 5
4 281 279 259 141 5
4 284 281 141 142 5
4 284 283 541 142 5
4 345 280 362 361 5
4 364 363 190 514 5
4 326 327 328 329 6
4 330 331 332 333 6
4 328 327 349 235 6
4 329 328 235 238 6
4 332 331 760 682 6
4 333 332 682 771 6
4 571 572 573 574 6
4 572 715 718 573 6
4 715 716 717 718 6
4 716 711 714 717 6
4 711 712 713 714 6
4 712 707 710 713 6
4 707 708 709 710 6
4 708 703 706 709 6
4 703 704 705 706 6
4 704 699 702 705 6
4 699 700 701 702 6
4 700 695 698 701 6
4 695 696 697 698 6
4 696 691 694 697 6
4 691 692 693 694 6
4 692 687 690 693 6
4 687 688 689 690 6
4 683 684 685 686 6
4 688 683 686 689 6
4 334 335 336 337 6
4 334 335 681 682 6
4 340 339 681 719 6
4 339 338 720 681 6
4 324 323 236 348 6
4 323 322 237 236 6
4 338 339 340 341 6
4 322 323 324 325 6
4 503 504 505 506 6
4 504 499 502 505 6
4 499 500 501 502 6
4 500 497 498 501 6
4 497 495 496 498 6
4 495 493 494 496 6
4 493 491 492 494 6
4 491 489 490 492 6
4 489 487 488 490 6
4 487 485 486 488 6
4 485 471 474 486 6
4 471 472 473 474 6
4 472 481 482 473 6
4 481 479 480 482 6
4 475 476 477 478 6
4 479 475 478 480 6
4 148 147 243 765 6
4 320 319 675 676 6
4 315 314 149 148 6
4 319 318 767 675 6
4 316 315 765 344 6
4 314 315 316 317 6
4 318 319 320 321 6
4 654 649 650 655 6
4 649 646 647 650 6
4 645 646 647 648 6
4 653 642 643 648 6
4 641 642 643 644 6
4 652 638 639 644 6
4 637 638 639 640 6
4 651 634 635 640 6
4 633 634 635 636 6
4 660 630 631 636 6
4 629 630 631 632 6
4 659 626 627 632 6
4 625 626 627 628 6
4 656 657 658 628 6
4 860 861 862 832 6
4 829 830 831 832 6
4 863 830 831 836 6
4 833 834 835 836 6
4 864 834 835 840 6
4 837 838 839 840 6
4 855 838 839 844 6
4 841 842 843 844 6
4 856 842 843 848 6
4 845 846 847 848 6
4 857 846 847 852 6
4 849 850 851 852 6
4 853 850 851 854 6
4 858 853 854 859 6
4 401 402 23 24 6
4 403 404 19 20 6
4 19 20 21 22 6
4 23 24 25 26 6
4 20 403 766 21 6
4 145 146 240 25 6
4 24 401 144 145 6
4 667 668 669 670 6
4 668 677 678 669 6
4 679 667 670 680 6
4 758 679 680 759 6
4 672 758 759 673 6
4 671 672 673 674 6
4 665 671 674 666 6
4 663 665 666 664 6
4 661 663 664 662 6
4 483 661 662 484 6
4 466 483 484 467 6
4 465 466 467 468 6
4 469 465 468 470 6
4 762 469 470 763 6
4 761 762 763 764 6
4 869 761 764 870 6
4 423 424 871 909 6
4 424 421 910 871 6
4 407 408 255 251 6
4 408 405 254 255 6
4 405 406 407 408 6
4 421 422 423 424 6
4 417 418 419 420 6
4 417 420 871 872 6
4 873 874 875 876 6
4 878 873 876 879 6
4 877 878 879 880 6
4 882 877 880 883 6
4 881 882 883 884 6
4 886 881 884 887 6
4 885 886 887 888 6
4 890 885 888 891 6
4 889 890 891 892 6
4 894 889 892 895 6
4 893 894 895 896 6
4 898 893 896 899 6
4 897 898 899 900 6
4 902 897 900 903 6
4 901 902 903 904 6
4 906 901 904 907 6
4 905 906 907 908 6
4 778 905 908 779 6
4 777 778 779 780 6
4 409 410 411 412 6
4 413 414 415 416 6
4 410 411 256 253 6
4 415 416 946 872 6
4 411 412 250 256 6
4 415 414 951 872 6
4 81 82 80 79 8
4 79 80 76 75 8
4 75 76 77 78 8
4 73 74 72 71 8
4 71 72 68 67 8
4 67 68 69 70 8
4 63 64 65 66 8
4 66 65 83 84 8
4 84 83 126 127 8
4 122 123 124 125 8
4 120 121 117 116 8
4 116 117 118 119 8
4 98 99 100 101 8
4 101 100 115 114 8
4 114 115 111 110 8
4 110 111 112 113 8
7 99 101 105 108 105 110 103
5 102 108 111 111 114
6 115 116 97 105 114 115
13 105 110 116 101 114 105 111 114 119 97 108 108 115
8 97 117 100 105 101 110 99 101
10 112 97 110 101 108 119 97 108 108 115
13 115 105 100 101 114 101 102 108 101 99 116 111 114
13 101 120 116 101 114 105 111 114 119 97 108 108 115
10 114 101 102 108 101 99 116 111 114 115
5 115 116 97 103 101
